{"title":"Transporter Triology 720p Bluray x264-aZA BOZX","uid":5282380,"size":7164163392,"categoryP":"video","categoryS":"hd___movies","magnet":"?xt=urn:btih:d187bd0bf53b1e38ed4f29b04179bee2925a678a&amp;dn=Transporter+Triology+720p+Bluray+x264-aZA+BOZX&amp;tr=udp%3A%2F%2Ftracker.openbittorrent.com%3A80&amp;tr=udp%3A%2F%2Fopen.demonii.com%3A1337&amp;tr=udp%3A%2F%2Ftracker.coppersurfer.tk%3A6969&amp;tr=udp%3A%2F%2Fexodus.desync.com%3A6969","seeders":0,"leechers":1,"uploader":"BOZX","files":-1,"time":1263593375,"description":". Jason Statham as Frank Martin\n. Alessandro Gassman as Gianni Chellini\n. Amber Valletta as Audrey Billings\n. Kate Nauta as Lola\n. Matthew Modine as Jefferson Billings\n\nSource:Bluray\n\nGeneral\n\nComplete name                    : H:encodetransporterThe.Transporter.2002.BluRay.720p.x264.aZAThe.Transporter.2002.BluRay.720p.x264.aZA.mkv\nFormat                           : Matroska\nFile size                        : 2.17 GiB\nDuration                         : 1h 32mn\nOverall bit rate                 : 3 367 Kbps\nencoder                           : sri\nrelease                            : aZA  \n\n-------------------\n| Video Attribute |\n-------------------\n\n\n\nVideo\n\nDuration                         : 1h 32mn\nBit rate                         : 2 660 Kbps\nNominal bit rate                 : 2 793 Kbps\nWidth                            : 1 280 pixels\nHeight                           : 544 pixels\nDisplay aspect ratio             : 2.35:1\nFrame rate                       : 23.976 fps\nLanguage                         : English\n\n\n-------------------\n| Audio Attribute |\n-------------------\n\n\nAudio\nID                               : 2\nFormat                           : AC-3\nFormat/Info                      : Audio Coding 3\nCodec ID                         : A_AC3\nDuration                         : 1h 32mn\nBit rate mode                    : Constant\nBit rate                         : 640 Kbps\nChannel(s)                       : 6 channels\nChannel positions                : Front: L C R, Surround: L R, LFE\nSampling rate                    : 48.0 KHz\nStream size                      : 422 MiB (19%)\nLanguage                         : English\n\nsubtitle:eng\n\n\n-------------------\n| Video Attribute |\n-------------------\n\n \nGeneral\nComplete name                    : H:encodetransporterTransporter.2.2005.720p.BluRay.x264.aZATransporter.2.2005.720p.BluRay.x264.aZA.mkv\nFormat                           : Matroska\nFile size                        : 2.14 GiB\nDuration                         : 1h 27mn\nOverall bit rate                 : 3 489 Kbps\nencoder                           : sri\nrelease                            : aZA  \n\n\nVideo\n\nDuration                         : 1h 27mn\nBit rate                         : 2 779 Kbps\nNominal bit rate                 : 2 937 Kbps\nWidth                            : 1 280 pixels\nHeight                           : 544 pixels\nDisplay aspect ratio             : 2.35:1\nFrame rate                       : 23.976 fps\nLanguage                         : English\n\n\n-------------------\n| Audio Attribute |\n-------------------\n\n\n\nAudio\nID                               : 2\nFormat                           : AC-3\nFormat/Info                      : Audio Coding 3\nCodec ID                         : A_AC3\nDuration                         : 1h 27mn\nBit rate mode                    : Constant\nBit rate                         : 640 Kbps\nChannel(s)                       : 6 channels\nChannel positions                : Front: L C R, Surround: L R, LFE\nSampling rate                    : 48.0 KHz\nStream size                      : 401 MiB (18%)\nTitle                            : ac3 audio\nLanguage                         : English\n\n\nGeneral\nComplete name                    : H:encodetransporterTransporter.3.2008.720p.BluRay.x264.aZATransporter.3.2008.720p.BluRay.x264.aZA.mkv\nFormat                           : Matroska\nFile size                        : 2.21 GiB\nDuration                         : 1h 43mn\nOverall bit rate                 : 3 052 Kbps\nencoder                           : sri\nrelease                            : aZA  \n\n\n-------------------\n| Video Attribute |\n-------------------\n\n\n\nVideo\n\nDuration                         : 1h 43mn\nBit rate                         : 2 352 Kbps\nNominal bit rate                 : 2 485 Kbps\nWidth                            : 1 280 pixels\nHeight                           : 544 pixels\nDisplay aspect ratio             : 2.35:1\nFrame rate                       : 23.976 fps\nLanguage                         : English\n\n\n-------------------\n| Audio Attribute |\n-------------------\n\n\n\nAudio\nID                               : 2\nFormat                           : AC-3\nFormat/Info                      : Audio Coding 3\nCodec ID                         : A_AC3\nDuration                         : 1h 43mn\nBit rate mode                    : Constant\nBit rate                         : 640 Kbps\nChannel(s)                       : 6 channels\nChannel positions                : Front: L C R, Surround: L R, LFE\nSampling rate                    : 48.0 KHz\nStream size                      : 474 MiB (21%)\nTitle                            : ac3 audio\nLanguage                         : English\n\n\n----------------\n| Release note |\n----------------\n\n\n\nScreenshots\tThe.Transporter.2002.BluRay.720p.x264.aZA\nTransporter.2.2005.720p.BluRay.x264.aZA\nTransporter.3.2008.720p.BluRay.x264.aZA\n\n","torrent":{"xt":"urn:btih:d187bd0bf53b1e38ed4f29b04179bee2925a678a","amp;dn":"Transporter+Triology+720p+Bluray+x264-aZA+BOZX","amp;tr":["udp%3A%2F%2Ftracker.openbittorrent.com%3A80","udp%3A%2F%2Fopen.demonii.com%3A1337","udp%3A%2F%2Ftracker.coppersurfer.tk%3A6969","udp%3A%2F%2Fexodus.desync.com%3A6969"],"infoHash":"d187bd0bf53b1e38ed4f29b04179bee2925a678a","infoHashBuffer":{"type":"Buffer","data":[209,135,189,11,245,59,30,56,237,79,41,176,65,121,190,226,146,90,103,138]},"announce":[],"urlList":[]}}